<mxfile host="app.diagrams.net" modified="2023-08-02T04:19:11.058Z" agent="Mozilla/5.0 (Windows NT 10.0; Win64; x64) AppleWebKit/537.36 (KHTML, like Gecko) Chrome/115.0.0.0 Safari/537.36 Edg/115.0.1901.188" etag="P9Ww1USwOlIojUqbDACa" version="21.6.6" type="github">
  <diagram id="R2lEEEUBdFMjLlhIrx00" name="Page-1">
    <mxGraphModel dx="713" dy="371" grid="1" gridSize="10" guides="1" tooltips="1" connect="1" arrows="1" fold="1" page="1" pageScale="1" pageWidth="850" pageHeight="1100" math="0" shadow="0" extFonts="Permanent Marker^https://fonts.googleapis.com/css?family=Permanent+Marker">
      <root>
        <mxCell id="0" />
        <mxCell id="1" parent="0" />
        <mxCell id="yYa1kcZQvfH_xLD0wdAL-1" value="대학생" style="rounded=0;whiteSpace=wrap;html=1;fillColor=#d5e8d4;strokeColor=#82b366;" parent="1" vertex="1">
          <mxGeometry x="105" y="200" width="120" height="60" as="geometry" />
        </mxCell>
        <mxCell id="yYa1kcZQvfH_xLD0wdAL-2" value="수강" style="rhombus;whiteSpace=wrap;html=1;fillColor=#dae8fc;strokeColor=#6c8ebf;" parent="1" vertex="1">
          <mxGeometry x="367.5" y="190" width="80" height="80" as="geometry" />
        </mxCell>
        <mxCell id="yYa1kcZQvfH_xLD0wdAL-3" value="과목" style="rounded=0;whiteSpace=wrap;html=1;fillColor=#ffe6cc;strokeColor=#d79b00;" parent="1" vertex="1">
          <mxGeometry x="607.5" y="200" width="120" height="60" as="geometry" />
        </mxCell>
        <mxCell id="yYa1kcZQvfH_xLD0wdAL-4" value="" style="endArrow=none;html=1;rounded=0;entryX=0;entryY=0.5;entryDx=0;entryDy=0;exitX=1;exitY=0.5;exitDx=0;exitDy=0;" parent="1" source="yYa1kcZQvfH_xLD0wdAL-1" target="yYa1kcZQvfH_xLD0wdAL-2" edge="1">
          <mxGeometry width="50" height="50" relative="1" as="geometry">
            <mxPoint x="252.5" y="260" as="sourcePoint" />
            <mxPoint x="362.5" y="230" as="targetPoint" />
          </mxGeometry>
        </mxCell>
        <mxCell id="yYa1kcZQvfH_xLD0wdAL-5" value="" style="endArrow=none;html=1;rounded=0;entryX=0;entryY=0.5;entryDx=0;entryDy=0;exitX=1;exitY=0.5;exitDx=0;exitDy=0;" parent="1" source="yYa1kcZQvfH_xLD0wdAL-2" target="yYa1kcZQvfH_xLD0wdAL-3" edge="1">
          <mxGeometry width="50" height="50" relative="1" as="geometry">
            <mxPoint x="462.5" y="250" as="sourcePoint" />
            <mxPoint x="567.5" y="229.5" as="targetPoint" />
          </mxGeometry>
        </mxCell>
        <mxCell id="yYa1kcZQvfH_xLD0wdAL-6" value="&lt;u&gt;학번&lt;/u&gt;" style="ellipse;whiteSpace=wrap;html=1;fillColor=#e1d5e7;strokeColor=#9673a6;" parent="1" vertex="1">
          <mxGeometry x="50" y="320" width="70" height="50" as="geometry" />
        </mxCell>
        <mxCell id="yYa1kcZQvfH_xLD0wdAL-7" value="이름" style="ellipse;whiteSpace=wrap;html=1;fillColor=#e1d5e7;strokeColor=#9673a6;" parent="1" vertex="1">
          <mxGeometry x="130" y="320" width="70" height="50" as="geometry" />
        </mxCell>
        <mxCell id="yYa1kcZQvfH_xLD0wdAL-8" value="학과" style="ellipse;whiteSpace=wrap;html=1;fillColor=#e1d5e7;strokeColor=#9673a6;" parent="1" vertex="1">
          <mxGeometry x="210" y="320" width="70" height="50" as="geometry" />
        </mxCell>
        <mxCell id="yYa1kcZQvfH_xLD0wdAL-9" value="&lt;u&gt;과목번호&lt;/u&gt;" style="ellipse;whiteSpace=wrap;html=1;fillColor=#fff2cc;strokeColor=#d6b656;" parent="1" vertex="1">
          <mxGeometry x="512.5" y="330" width="70" height="50" as="geometry" />
        </mxCell>
        <mxCell id="yYa1kcZQvfH_xLD0wdAL-10" value="과목명" style="ellipse;whiteSpace=wrap;html=1;fillColor=#fff2cc;strokeColor=#d6b656;" parent="1" vertex="1">
          <mxGeometry x="592.5" y="330" width="70" height="50" as="geometry" />
        </mxCell>
        <mxCell id="yYa1kcZQvfH_xLD0wdAL-11" value="학점" style="ellipse;whiteSpace=wrap;html=1;fillColor=#fff2cc;strokeColor=#d6b656;" parent="1" vertex="1">
          <mxGeometry x="672.5" y="330" width="70" height="50" as="geometry" />
        </mxCell>
        <mxCell id="yYa1kcZQvfH_xLD0wdAL-12" value="시수" style="ellipse;whiteSpace=wrap;html=1;fillColor=#fff2cc;strokeColor=#d6b656;" parent="1" vertex="1">
          <mxGeometry x="752.5" y="330" width="70" height="50" as="geometry" />
        </mxCell>
        <mxCell id="yYa1kcZQvfH_xLD0wdAL-13" value="" style="endArrow=none;html=1;rounded=0;exitX=0.5;exitY=0;exitDx=0;exitDy=0;entryX=0.5;entryY=1;entryDx=0;entryDy=0;" parent="1" source="yYa1kcZQvfH_xLD0wdAL-9" target="yYa1kcZQvfH_xLD0wdAL-3" edge="1">
          <mxGeometry width="50" height="50" relative="1" as="geometry">
            <mxPoint x="567.5" y="320" as="sourcePoint" />
            <mxPoint x="667.5" y="270" as="targetPoint" />
          </mxGeometry>
        </mxCell>
        <mxCell id="yYa1kcZQvfH_xLD0wdAL-14" value="" style="endArrow=none;html=1;rounded=0;exitX=0.5;exitY=0;exitDx=0;exitDy=0;entryX=0.5;entryY=1;entryDx=0;entryDy=0;" parent="1" source="yYa1kcZQvfH_xLD0wdAL-10" target="yYa1kcZQvfH_xLD0wdAL-3" edge="1">
          <mxGeometry width="50" height="50" relative="1" as="geometry">
            <mxPoint x="607.5" y="330" as="sourcePoint" />
            <mxPoint x="667.5" y="270" as="targetPoint" />
          </mxGeometry>
        </mxCell>
        <mxCell id="yYa1kcZQvfH_xLD0wdAL-15" value="" style="endArrow=none;html=1;rounded=0;exitX=0.5;exitY=0;exitDx=0;exitDy=0;entryX=0.5;entryY=1;entryDx=0;entryDy=0;" parent="1" source="yYa1kcZQvfH_xLD0wdAL-11" target="yYa1kcZQvfH_xLD0wdAL-3" edge="1">
          <mxGeometry width="50" height="50" relative="1" as="geometry">
            <mxPoint x="667.5" y="337" as="sourcePoint" />
            <mxPoint x="672.5" y="300" as="targetPoint" />
          </mxGeometry>
        </mxCell>
        <mxCell id="yYa1kcZQvfH_xLD0wdAL-16" value="" style="endArrow=none;html=1;rounded=0;exitX=0.5;exitY=0;exitDx=0;exitDy=0;entryX=0.5;entryY=1;entryDx=0;entryDy=0;" parent="1" source="yYa1kcZQvfH_xLD0wdAL-12" target="yYa1kcZQvfH_xLD0wdAL-3" edge="1">
          <mxGeometry width="50" height="50" relative="1" as="geometry">
            <mxPoint x="757.5" y="330" as="sourcePoint" />
            <mxPoint x="667.5" y="270" as="targetPoint" />
          </mxGeometry>
        </mxCell>
        <mxCell id="yYa1kcZQvfH_xLD0wdAL-17" value="&lt;u&gt;수강번호&lt;/u&gt;" style="ellipse;whiteSpace=wrap;html=1;fillColor=#f8cecc;strokeColor=#b85450;" parent="1" vertex="1">
          <mxGeometry x="72.5" y="60" width="70" height="40" as="geometry" />
        </mxCell>
        <mxCell id="yYa1kcZQvfH_xLD0wdAL-18" value="과목번호" style="ellipse;whiteSpace=wrap;html=1;fillColor=#f8cecc;strokeColor=#b85450;" parent="1" vertex="1">
          <mxGeometry x="162.5" y="60" width="70" height="40" as="geometry" />
        </mxCell>
        <mxCell id="yYa1kcZQvfH_xLD0wdAL-19" value="강의실" style="ellipse;whiteSpace=wrap;html=1;fillColor=#f8cecc;strokeColor=#b85450;" parent="1" vertex="1">
          <mxGeometry x="252.5" y="60" width="70" height="40" as="geometry" />
        </mxCell>
        <mxCell id="yYa1kcZQvfH_xLD0wdAL-20" value="담당교수" style="ellipse;whiteSpace=wrap;html=1;fillColor=#f8cecc;strokeColor=#b85450;" parent="1" vertex="1">
          <mxGeometry x="337.5" y="60" width="70" height="40" as="geometry" />
        </mxCell>
        <mxCell id="yYa1kcZQvfH_xLD0wdAL-21" value="시간표" style="ellipse;whiteSpace=wrap;html=1;fillColor=#f8cecc;strokeColor=#b85450;" parent="1" vertex="1">
          <mxGeometry x="422.5" y="60" width="70" height="40" as="geometry" />
        </mxCell>
        <mxCell id="yYa1kcZQvfH_xLD0wdAL-22" value="연도" style="ellipse;whiteSpace=wrap;html=1;fillColor=#f8cecc;strokeColor=#b85450;" parent="1" vertex="1">
          <mxGeometry x="512.5" y="60" width="70" height="40" as="geometry" />
        </mxCell>
        <mxCell id="yYa1kcZQvfH_xLD0wdAL-23" value="학기" style="ellipse;whiteSpace=wrap;html=1;fillColor=#f8cecc;strokeColor=#b85450;" parent="1" vertex="1">
          <mxGeometry x="672.5" y="60" width="70" height="40" as="geometry" />
        </mxCell>
        <mxCell id="yYa1kcZQvfH_xLD0wdAL-24" value="" style="endArrow=none;html=1;rounded=0;exitX=0.5;exitY=0;exitDx=0;exitDy=0;entryX=0.5;entryY=1;entryDx=0;entryDy=0;" parent="1" source="yYa1kcZQvfH_xLD0wdAL-2" target="yYa1kcZQvfH_xLD0wdAL-17" edge="1">
          <mxGeometry width="50" height="50" relative="1" as="geometry">
            <mxPoint x="52.5" y="150" as="sourcePoint" />
            <mxPoint x="112.5" y="110" as="targetPoint" />
          </mxGeometry>
        </mxCell>
        <mxCell id="yYa1kcZQvfH_xLD0wdAL-25" value="" style="endArrow=none;html=1;rounded=0;exitX=0.5;exitY=0;exitDx=0;exitDy=0;entryX=0.5;entryY=1;entryDx=0;entryDy=0;" parent="1" source="yYa1kcZQvfH_xLD0wdAL-2" target="yYa1kcZQvfH_xLD0wdAL-23" edge="1">
          <mxGeometry width="50" height="50" relative="1" as="geometry">
            <mxPoint x="871" y="153" as="sourcePoint" />
            <mxPoint x="624" y="100" as="targetPoint" />
          </mxGeometry>
        </mxCell>
        <mxCell id="yYa1kcZQvfH_xLD0wdAL-26" value="수강학생&lt;br&gt;학번(FK)" style="ellipse;whiteSpace=wrap;html=1;fillColor=#f8cecc;strokeColor=#b85450;" parent="1" vertex="1">
          <mxGeometry x="592.5" y="60" width="70" height="40" as="geometry" />
        </mxCell>
        <mxCell id="yYa1kcZQvfH_xLD0wdAL-27" value="" style="endArrow=none;html=1;rounded=0;exitX=0.5;exitY=0;exitDx=0;exitDy=0;entryX=0.5;entryY=1;entryDx=0;entryDy=0;" parent="1" source="yYa1kcZQvfH_xLD0wdAL-6" target="yYa1kcZQvfH_xLD0wdAL-1" edge="1">
          <mxGeometry width="50" height="50" relative="1" as="geometry">
            <mxPoint x="75" y="320" as="sourcePoint" />
            <mxPoint x="185" y="253" as="targetPoint" />
          </mxGeometry>
        </mxCell>
        <mxCell id="yYa1kcZQvfH_xLD0wdAL-28" value="" style="endArrow=none;html=1;rounded=0;exitX=0.5;exitY=1;exitDx=0;exitDy=0;entryX=0.5;entryY=0;entryDx=0;entryDy=0;" parent="1" source="yYa1kcZQvfH_xLD0wdAL-1" target="yYa1kcZQvfH_xLD0wdAL-8" edge="1">
          <mxGeometry width="50" height="50" relative="1" as="geometry">
            <mxPoint x="185" y="310" as="sourcePoint" />
            <mxPoint x="275" y="250" as="targetPoint" />
          </mxGeometry>
        </mxCell>
        <mxCell id="yYa1kcZQvfH_xLD0wdAL-29" value="" style="endArrow=none;html=1;rounded=0;exitX=0.5;exitY=1;exitDx=0;exitDy=0;entryX=0.5;entryY=0;entryDx=0;entryDy=0;" parent="1" source="yYa1kcZQvfH_xLD0wdAL-1" target="yYa1kcZQvfH_xLD0wdAL-7" edge="1">
          <mxGeometry width="50" height="50" relative="1" as="geometry">
            <mxPoint x="150" y="280" as="sourcePoint" />
            <mxPoint x="225" y="340" as="targetPoint" />
          </mxGeometry>
        </mxCell>
        <mxCell id="yYa1kcZQvfH_xLD0wdAL-30" value="" style="endArrow=none;html=1;rounded=0;exitX=0.5;exitY=0;exitDx=0;exitDy=0;entryX=0.5;entryY=1;entryDx=0;entryDy=0;" parent="1" source="yYa1kcZQvfH_xLD0wdAL-2" target="yYa1kcZQvfH_xLD0wdAL-22" edge="1">
          <mxGeometry width="50" height="50" relative="1" as="geometry">
            <mxPoint x="412.5" y="190" as="sourcePoint" />
            <mxPoint x="542.5" y="100" as="targetPoint" />
          </mxGeometry>
        </mxCell>
        <mxCell id="yYa1kcZQvfH_xLD0wdAL-31" value="" style="endArrow=none;html=1;rounded=0;exitX=0.5;exitY=0;exitDx=0;exitDy=0;entryX=0.5;entryY=1;entryDx=0;entryDy=0;" parent="1" source="yYa1kcZQvfH_xLD0wdAL-2" target="yYa1kcZQvfH_xLD0wdAL-26" edge="1">
          <mxGeometry width="50" height="50" relative="1" as="geometry">
            <mxPoint x="582.5" y="150" as="sourcePoint" />
            <mxPoint x="622.5" y="100" as="targetPoint" />
          </mxGeometry>
        </mxCell>
        <mxCell id="yYa1kcZQvfH_xLD0wdAL-32" value="" style="endArrow=none;html=1;rounded=0;exitX=0.5;exitY=0;exitDx=0;exitDy=0;entryX=0.5;entryY=1;entryDx=0;entryDy=0;" parent="1" source="yYa1kcZQvfH_xLD0wdAL-2" target="yYa1kcZQvfH_xLD0wdAL-21" edge="1">
          <mxGeometry width="50" height="50" relative="1" as="geometry">
            <mxPoint x="407.5" y="150" as="sourcePoint" />
            <mxPoint x="457.5" y="100" as="targetPoint" />
          </mxGeometry>
        </mxCell>
        <mxCell id="yYa1kcZQvfH_xLD0wdAL-33" value="" style="endArrow=none;html=1;rounded=0;exitX=0.5;exitY=0;exitDx=0;exitDy=0;entryX=0.5;entryY=1;entryDx=0;entryDy=0;" parent="1" source="yYa1kcZQvfH_xLD0wdAL-2" target="yYa1kcZQvfH_xLD0wdAL-20" edge="1">
          <mxGeometry width="50" height="50" relative="1" as="geometry">
            <mxPoint x="322.5" y="150" as="sourcePoint" />
            <mxPoint x="352.5" y="120" as="targetPoint" />
          </mxGeometry>
        </mxCell>
        <mxCell id="yYa1kcZQvfH_xLD0wdAL-34" value="" style="endArrow=none;html=1;rounded=0;entryX=0.5;entryY=1;entryDx=0;entryDy=0;exitX=0.5;exitY=0;exitDx=0;exitDy=0;" parent="1" source="yYa1kcZQvfH_xLD0wdAL-2" target="yYa1kcZQvfH_xLD0wdAL-19" edge="1">
          <mxGeometry width="50" height="50" relative="1" as="geometry">
            <mxPoint x="272.5" y="190" as="sourcePoint" />
            <mxPoint x="332.5" y="120" as="targetPoint" />
          </mxGeometry>
        </mxCell>
        <mxCell id="yYa1kcZQvfH_xLD0wdAL-35" value="" style="endArrow=none;html=1;rounded=0;entryX=0.5;entryY=1;entryDx=0;entryDy=0;exitX=0.5;exitY=0;exitDx=0;exitDy=0;" parent="1" source="yYa1kcZQvfH_xLD0wdAL-2" target="yYa1kcZQvfH_xLD0wdAL-18" edge="1">
          <mxGeometry width="50" height="50" relative="1" as="geometry">
            <mxPoint x="282.5" y="250" as="sourcePoint" />
            <mxPoint x="332.5" y="200" as="targetPoint" />
          </mxGeometry>
        </mxCell>
      </root>
    </mxGraphModel>
  </diagram>
</mxfile>
